<svg xmlns="http://www.w3.org/2000/svg" xmlns:xlink="http://www.w3.org/1999/xlink" width="400" zoomAndPan="magnify" viewBox="0 0 300 299.999988" height="400" preserveAspectRatio="xMidYMid meet" version="1.0"><defs><g/><clipPath id="id1"><path d="M 130.710938 134.851562 L 168.960938 134.851562 L 168.960938 173.101562 L 130.710938 173.101562 Z M 130.710938 134.851562 " clip-rule="nonzero"/></clipPath></defs><rect x="-30" width="360" fill="#ffffff" y="-29.999999" height="359.999986" fill-opacity="1"/><rect x="-30" width="360" fill="#ffffff" y="-29.999999" height="359.999986" fill-opacity="1"/><rect x="-30" width="360" fill="#ffffff" y="-29.999999" height="359.999986" fill-opacity="1"/><path fill="#000000" d="M 150 225 C 191.421875 225 225 191.421875 225 150 C 225 108.578125 191.421875 75 150 75 C 108.578125 75 75 108.578125 75 150 C 75 191.421875 108.578125 225 150 225 Z M 142.945312 114 C 138.398438 114 134.242188 116.566406 132.210938 120.632812 L 130.632812 123.789062 C 129.957031 125.144531 128.570312 126 127.054688 126 L 122 126 C 115.371094 126 110 131.371094 110 138 L 110 174 C 110 180.628906 115.371094 186 122 186 L 178 186 C 184.628906 186 190 180.628906 190 174 L 190 138 C 190 131.371094 184.628906 126 178 126 L 172.945312 126 C 171.429688 126 170.042969 125.144531 169.367188 123.789062 L 167.789062 120.632812 C 165.757812 116.566406 161.601562 114 157.054688 114 Z M 150 142 C 143.371094 142 138 147.371094 138 154 C 138 160.628906 143.371094 166 150 166 C 156.628906 166 162 160.628906 162 154 C 162 147.371094 156.628906 142 150 142 Z M 130 154 C 130 142.953125 138.953125 134 150 134 C 161.046875 134 170 142.953125 170 154 C 170 165.046875 161.046875 174 150 174 C 138.953125 174 130 165.046875 130 154 Z M 130 154 " fill-opacity="1" fill-rule="evenodd"/><g clip-path="url(#id1)"><path fill="#000000" d="M 168.960938 153.976562 C 168.960938 154.601562 168.929688 155.226562 168.871094 155.847656 C 168.808594 156.472656 168.71875 157.089844 168.59375 157.707031 C 168.472656 158.320312 168.320312 158.925781 168.140625 159.527344 C 167.957031 160.125 167.746094 160.714844 167.507812 161.292969 C 167.265625 161.871094 167 162.4375 166.703125 162.992188 C 166.410156 163.542969 166.085938 164.078125 165.738281 164.601562 C 165.390625 165.121094 165.019531 165.625 164.621094 166.109375 C 164.222656 166.59375 163.804688 167.054688 163.359375 167.5 C 162.917969 167.941406 162.453125 168.363281 161.96875 168.757812 C 161.484375 169.15625 160.984375 169.527344 160.460938 169.875 C 159.941406 170.226562 159.40625 170.546875 158.851562 170.839844 C 158.300781 171.136719 157.734375 171.40625 157.15625 171.644531 C 156.578125 171.882812 155.988281 172.09375 155.390625 172.277344 C 154.789062 172.457031 154.183594 172.609375 153.570312 172.734375 C 152.953125 172.855469 152.335938 172.945312 151.710938 173.007812 C 151.089844 173.070312 150.464844 173.101562 149.835938 173.101562 C 149.210938 173.101562 148.585938 173.070312 147.960938 173.007812 C 147.339844 172.945312 146.71875 172.855469 146.105469 172.734375 C 145.492188 172.609375 144.886719 172.457031 144.285156 172.277344 C 143.6875 172.09375 143.097656 171.882812 142.519531 171.644531 C 141.941406 171.40625 141.375 171.136719 140.820312 170.839844 C 140.269531 170.546875 139.734375 170.226562 139.210938 169.875 C 138.691406 169.527344 138.1875 169.15625 137.703125 168.757812 C 137.21875 168.363281 136.757812 167.941406 136.3125 167.5 C 135.871094 167.054688 135.449219 166.59375 135.054688 166.109375 C 134.65625 165.625 134.285156 165.121094 133.933594 164.601562 C 133.585938 164.078125 133.265625 163.542969 132.96875 162.992188 C 132.675781 162.4375 132.40625 161.871094 132.167969 161.292969 C 131.929688 160.714844 131.71875 160.125 131.535156 159.527344 C 131.355469 158.925781 131.203125 158.320312 131.078125 157.707031 C 130.957031 157.089844 130.867188 156.472656 130.804688 155.847656 C 130.742188 155.226562 130.710938 154.601562 130.710938 153.976562 C 130.710938 153.347656 130.742188 152.722656 130.804688 152.101562 C 130.867188 151.476562 130.957031 150.859375 131.078125 150.242188 C 131.203125 149.628906 131.355469 149.023438 131.535156 148.421875 C 131.71875 147.824219 131.929688 147.234375 132.167969 146.65625 C 132.40625 146.078125 132.675781 145.511719 132.96875 144.960938 C 133.265625 144.40625 133.585938 143.871094 133.933594 143.351562 C 134.285156 142.828125 134.65625 142.328125 135.054688 141.84375 C 135.449219 141.359375 135.871094 140.894531 136.3125 140.453125 C 136.757812 140.007812 137.21875 139.589844 137.703125 139.191406 C 138.1875 138.792969 138.691406 138.421875 139.210938 138.074219 C 139.734375 137.726562 140.269531 137.402344 140.820312 137.109375 C 141.375 136.8125 141.941406 136.546875 142.519531 136.304688 C 143.097656 136.066406 143.6875 135.855469 144.285156 135.671875 C 144.886719 135.492188 145.492188 135.339844 146.105469 135.21875 C 146.71875 135.09375 147.339844 135.003906 147.960938 134.941406 C 148.585938 134.878906 149.210938 134.851562 149.835938 134.851562 C 150.464844 134.851562 151.089844 134.878906 151.710938 134.941406 C 152.335938 135.003906 152.953125 135.09375 153.570312 135.21875 C 154.183594 135.339844 154.789062 135.492188 155.390625 135.671875 C 155.988281 135.855469 156.578125 136.066406 157.15625 136.304688 C 157.734375 136.546875 158.300781 136.8125 158.851562 137.109375 C 159.40625 137.402344 159.941406 137.726562 160.460938 138.074219 C 160.984375 138.421875 161.484375 138.792969 161.96875 139.191406 C 162.453125 139.589844 162.917969 140.007812 163.359375 140.453125 C 163.804688 140.894531 164.222656 141.359375 164.621094 141.84375 C 165.019531 142.328125 165.390625 142.828125 165.738281 143.351562 C 166.085938 143.871094 166.410156 144.40625 166.703125 144.960938 C 167 145.511719 167.265625 146.078125 167.507812 146.65625 C 167.746094 147.234375 167.957031 147.824219 168.140625 148.421875 C 168.320312 149.023438 168.472656 149.628906 168.59375 150.242188 C 168.71875 150.859375 168.808594 151.476562 168.871094 152.101562 C 168.929688 152.722656 168.960938 153.347656 168.960938 153.976562 Z M 168.960938 153.976562 " fill-opacity="1" fill-rule="nonzero"/></g><g fill="#000000" fill-opacity="1"><g transform="translate(139.232804, 159.270142)"><g><path d="M 7.234375 -1.1875 L 0.484375 -4.1875 L 0.484375 -5.34375 L 7.234375 -8.71875 L 7.234375 -6.734375 L 3.09375 -4.84375 L 7.234375 -3.15625 Z M 7.234375 -1.1875 "/></g></g></g><g fill="#000000" fill-opacity="1"><g transform="translate(146.976675, 159.270142)"><g><path d="M 6.015625 -9.90625 L 2.375 0.140625 L 0.0625 0.140625 L 3.703125 -9.90625 Z M 6.015625 -9.90625 "/></g></g></g><g fill="#000000" fill-opacity="1"><g transform="translate(153.023442, 159.270142)"><g><path d="M 0.484375 -3.15625 L 4.625 -4.84375 L 0.484375 -6.734375 L 0.484375 -8.71875 L 7.234375 -5.34375 L 7.234375 -4.1875 L 0.484375 -1.1875 Z M 0.484375 -3.15625 "/></g></g></g><g fill="#ffffff" fill-opacity="1"><g transform="translate(135.989752, 160.48585)"><g><path d="M 9.421875 -1.546875 L 0.625 -5.453125 L 0.625 -6.953125 L 9.421875 -11.34375 L 9.421875 -8.765625 L 4.03125 -6.3125 L 9.421875 -4.109375 Z M 9.421875 -1.546875 "/></g></g></g><g fill="#ffffff" fill-opacity="1"><g transform="translate(146.067853, 160.48585)"><g><path d="M 7.84375 -12.890625 L 3.09375 0.171875 L 0.09375 0.171875 L 4.828125 -12.890625 Z M 7.84375 -12.890625 "/></g></g></g><g fill="#ffffff" fill-opacity="1"><g transform="translate(153.937295, 160.48585)"><g><path d="M 0.625 -4.109375 L 6.015625 -6.3125 L 0.625 -8.765625 L 0.625 -11.34375 L 9.421875 -6.953125 L 9.421875 -5.453125 L 0.625 -1.546875 Z M 0.625 -4.109375 "/></g></g></g></svg>